<svg xmlns="http://www.w3.org/2000/svg" fill="none" viewBox="0 0 96 96" id="Mysql--Streamline-Svg-Logos">
  <desc>
    Mysql Streamline Icon: https://streamlinehq.com
  </desc>
  <path fill="#00758f" d="m28.9631 58.277 2.8568 9.2692c0.6417 2.1045 0.9094 3.5736 0.8024 4.411 1.5624 -4.1845 2.654 -8.7447 3.275 -13.6802h3.435c-1.4769 8.0352 -3.4251 13.8743 -5.8432 17.5169 -1.884 2.8067 -3.948 4.2101 -6.1956 4.2101 -0.5991 0 -1.3379 -0.181 -2.2147 -0.5405v-1.937c0.4283 0.0629 0.9309 0.0964 1.5089 0.0964 1.0485 0 1.8935 -0.2905 2.5364 -0.8704 0.7699 -0.7067 1.1552 -1.5009 1.1552 -2.3811 0 -0.6012 -0.3005 -1.8348 -0.8988 -3.7009L25.4 58.277h3.5631ZM7.09973 52.5798l5.23257 15.9648h0.0321l5.2647 -15.9648h4.3012c0.9419 7.9173 1.498 15.1616 1.6689 21.7276h-3.6264c-0.1276 -6.1381 -0.4811 -11.9099 -1.059 -17.3165h-0.0319l-5.5222 17.3165h-2.7614L5.10958 56.9909h-0.03233c-0.40726 5.1924 -0.66348 10.9642 -0.77033 17.3165H1c0.2137 -7.7254 0.74851 -14.9674 1.60443 -21.7276h4.4953Z" stroke-width="1"></path>
  <path fill="#f29111" d="M65.7168 52.2573c5.6283 0 8.4428 3.596 8.4428 10.7842 0 3.9062 -0.8464 6.8567 -2.5376 8.8501 -0.3049 0.3642 -0.6416 0.6788 -0.9963 0.9704l3.9831 1.9694 -0.0039 -0.0002 -1.4142 2.4421 -5.187 -3.0265c-0.8599 0.2546 -1.8058 0.3819 -2.8369 0.3819 -2.7635 0 -4.8278 -0.8055 -6.1928 -2.4142 -1.4981 -1.7798 -2.2466 -4.5816 -2.2466 -8.4008 0 -3.8841 0.8447 -6.8234 2.5364 -8.8193 1.5406 -1.8256 3.6922 -2.7371 6.453 -2.7371Zm-17.2359 0.0318c2.0117 0 3.841 0.5383 5.4885 1.611l-0.8369 1.8647c-1.4097 -0.5993 -2.7999 -0.9001 -4.1705 -0.9001 -1.1121 0 -1.9692 0.2677 -2.5666 0.8063 -0.6008 0.5339 -0.9723 1.2211 -0.9723 2.0585 0 1.2868 0.9169 2.403 2.6097 3.346 0.4554 0.2476 1.0486 0.5778 1.6581 0.92l0.1263 0.071c0.0211 0.0118 0.0422 0.0237 0.0632 0.0355l0.1266 0.0712c0.0211 0.0119 0.0422 0.0238 0.0632 0.0356l0.1263 0.0712c1.2816 0.7225 2.4874 1.4121 2.4874 1.4121 1.6928 1.2016 2.5364 2.4826 2.5364 4.5927 0 1.8427 -0.6752 3.3554 -2.0212 4.539 -1.3471 1.1783 -3.1568 1.7691 -5.4231 1.7691 -2.1196 0 -4.1738 -0.6799 -6.1637 -2.0287l0.9309 -1.8664c1.7124 0.8582 3.262 1.2868 4.6533 1.2868 1.3051 0 2.3266 -0.2912 3.0656 -0.8666 0.7373 -0.5795 1.1793 -1.3878 1.1793 -2.413 0 -1.2901 -0.8973 -2.3928 -2.5437 -3.3179 -0.4275 -0.2353 -0.9751 -0.5424 -1.5413 -0.8625l-0.1261 -0.0713c-0.2316 -0.131 -0.4651 -0.2635 -0.6935 -0.3934l-0.1241 -0.0705c-1.1115 -0.6323 -2.0726 -1.1847 -2.0726 -1.1847 -1.6459 -1.2038 -2.471 -2.4954 -2.471 -4.6236 0 -1.7601 0.6153 -3.1828 1.8444 -4.2652 1.2319 -1.0845 2.8212 -1.6268 4.7674 -1.6268Zm32.2933 0.2906v19.0549h6.8367v2.6727h-10.304V52.5797h3.4673ZM91.41 71.6429v0.4516h-0.7519v2.2106h-0.5745v-2.2106h-0.781v-0.4516H91.41Zm1.3879 0 0.7216 1.8146 0.663 -1.8146h0.8145v2.6622h-0.5415V72.279l-0.7547 2.0261h-0.3905l-0.7558 -2.0261h-0.0291v2.0261h-0.5124v-2.6622h0.7849ZM65.3626 54.9294c-3.3168 0 -4.976 2.7373 -4.976 8.2084 0 3.1339 0.4397 5.4067 1.3174 6.823 0.8128 1.311 2.0861 1.965 3.8198 1.965 3.3168 0 4.976 -2.7586 4.976 -8.2735 0 -3.0901 -0.4397 -5.3432 -1.3163 -6.7601 -0.814 -1.3081 -2.0867 -1.9628 -3.8209 -1.9628Z" stroke-width="1"></path>
  <path fill="#00758f" d="M56.6682 17.3422c1.1003 -2.7036 4.9475 -0.6563 6.4406 0.2883 0.3659 0.2361 0.7854 0.7354 1.205 0.9199 0.6545 0.0258 1.3085 0.0768 1.9641 0.1043 1.2297 0.2889 2.3815 0.525 3.3504 1.077 4.5034 2.652 7.4348 5.3545 10.1329 9.8182 0.5762 0.9457 0.8643 1.9688 1.3353 2.992 0.6534 1.5251 1.3879 3.1259 2.1465 4.5682 0.3396 0.6837 0.6025 1.444 1.0741 2.0213 0.1841 0.264 0.7071 0.3418 1.0198 0.4996 0.8644 0.4474 1.9116 0.787 2.7244 1.3122 1.5183 0.9465 2.9862 2.0745 4.3205 3.2292 0.4973 0.4459 0.8363 1.0769 1.3101 1.5484v0.238c-0.4206 0.129 -0.8397 0.2612 -1.2592 0.367 -0.9164 0.2356 -1.7281 0.1823 -2.617 0.4179 -0.5494 0.1592 -1.2313 0.3695 -1.8075 0.4228 0.0257 0.0259 0.0531 0.0537 0.0531 0.0537 0.339 0.9684 2.1728 1.7561 3.0114 2.3352 1.0187 0.7351 1.9625 1.6269 2.7222 2.6506 0.2623 0.2613 0.5247 0.4991 0.786 0.7596 0.1823 0.264 0.2338 0.6054 0.4184 0.841v0.0795c-0.2045 -0.0722 -0.3515 -0.2098 -0.491 -0.3538l-0.0832 -0.0867c-0.083 -0.0866 -0.167 -0.1712 -0.2627 -0.2412 -0.5779 -0.3948 -1.1518 -0.867 -1.7297 -1.234 -0.9936 -0.6303 -2.146 -0.9963 -3.1664 -1.629 -0.5767 -0.3675 -1.1267 -0.786 -1.6766 -1.2062 -0.4984 -0.3685 -1.0472 -1.0763 -1.3605 -1.6013 -0.1846 -0.29 -0.2098 -0.631 -0.4207 -0.8407 0.0378 -0.3505 0.3589 -0.4548 0.6828 -0.5403l0.0747 -0.0196c0.1117 -0.0291 0.2211 -0.058 0.3166 -0.0963 1.3611 -0.578 2.984 -0.7877 5.0796 -0.7351 -0.0789 -0.5263 -1.3885 -1.1818 -1.8064 -1.4969 -0.8391 -0.6048 -1.7275 -1.2358 -2.6175 -1.7862 -0.4716 -0.2883 -1.2845 -0.4987 -1.807 -0.7342 -0.7071 -0.289 -2.2785 -0.5778 -2.6701 -1.1282 -0.6655 -0.8676 -1.1436 -1.9025 -1.6078 -2.948l-0.1264 -0.2853c-0.0421 -0.0951 -0.0842 -0.1902 -0.1264 -0.2851 -0.5488 -1.2589 -1.2302 -2.5714 -1.7801 -3.8604 -0.2876 -0.6288 -0.4196 -1.1807 -0.7346 -1.7837 -1.9104 -3.7009 -4.7383 -6.7994 -8.167 -8.9786 -1.1267 -0.709 -2.3831 -1.3652 -3.7699 -1.8112 -0.786 -0.2372 -1.7292 -0.106 -2.5667 -0.2883h-0.551c-0.4705 -0.1323 -0.8632 -0.631 -1.2302 -0.8941 -0.8106 -0.5502 -1.6223 -0.9199 -2.5918 -1.3125 -0.3396 -0.1576 -1.3096 -0.5245 -1.648 -0.2356 -0.2098 0.0527 -0.3161 0.1318 -0.3676 0.3422 -0.2086 0.3141 -0.0252 0.7869 0.1046 1.0764 0.3933 0.8391 0.9427 1.3377 1.4411 2.0467 0.4436 0.6288 0.9947 1.3378 1.3091 2.0216 0.6785 1.4696 0.9946 3.0979 1.6234 4.5675 0.2333 0.5525 0.6019 1.1813 0.9415 1.68 0.2876 0.3954 0.8106 0.6815 0.9689 1.1824 0.3156 0.525 -0.4721 2.2576 -0.6545 2.8079 -0.6819 2.153 -0.5499 5.1456 0.2355 7.012 0.014 0.0326 0.028 0.0654 0.0419 0.0984l0.0419 0.0996c0.2867 0.6835 0.5937 1.4195 1.3562 1.6107 0.0526 -0.0521 0 -0.0247 0.104 -0.0521 0.1847 -1.4446 0.2367 -2.8357 0.7346 -3.9659 0.2875 -0.7066 0.862 -1.2062 1.2559 -1.7831 0.2623 0.1571 0.2623 0.6311 0.419 0.9446 0.3407 0.8133 0.7065 1.7051 1.1267 2.5208 0.862 1.68 1.8321 3.3086 2.9313 4.7781 0.3681 0.5247 0.8906 1.1026 1.3617 1.5754 0.2098 0.183 0.4447 0.2888 0.6025 0.5243h0.0514v0.0793c-0.7854 -0.2896 -1.2833 -1.1021 -1.9098 -1.5765 -1.1793 -0.8917 -2.5918 -2.2309 -3.4047 -3.5159 -0.3401 -0.7376 -0.7077 -1.4446 -1.0741 -2.1786v-0.0531c-0.1566 0.2097 -0.104 0.4179 -0.1823 0.7351 -0.3402 1.3118 -0.0784 2.8083 -1.2565 3.28 -1.3354 0.5527 -2.3317 -0.8917 -2.7496 -1.5479 -1.3359 -2.1786 -1.7017 -5.8537 -0.7597 -8.8204 0.2092 -0.6568 0.2378 -1.4444 0.6031 -1.9688 -0.0789 -0.474 -0.4442 -0.6036 -0.6557 -0.8941 -0.3664 -0.4964 -0.6802 -1.0747 -0.9672 -1.6261 -0.551 -1.077 -0.9432 -2.3637 -1.3616 -3.5186 -0.1841 -0.4717 -0.2367 -0.9452 -0.4202 -1.3916 -0.3127 -0.6816 -0.8895 -1.3653 -1.3342 -1.9683 -0.6025 -0.8666 -2.3569 -2.546 -1.6497 -4.2534Zm8.5871 5.1433c0.0699 0.0701 0.1544 0.1315 0.2418 0.1918l0.1054 0.0724c0.1405 0.0971 0.2764 0.1997 0.3599 0.3394 0.132 0.1845 0.1567 0.3668 0.315 0.5519 0 0.6311 -0.183 1.0506 -0.5522 1.312 0 0 -0.0251 0.0275 -0.0509 0.0533 -0.2092 -0.4207 -0.3927 -0.8391 -0.6036 -1.2593 -0.2596 -0.3668 -0.6266 -0.6579 -0.838 -1.0769h-0.0509v-0.0527c0.3161 -0.078 0.6293 -0.1319 1.0735 -0.1319Z" stroke-width="1"></path>
</svg>